<svg class="m-foot__svg" viewBox="0 0 63 41" xmlns="http://www.w3.org/2000/svg"><path d="m44.3 23.4h2.7l-1-4.9zm16.7-23.4h-59c-1.1 0-2 .9-2 2v37c0 1.1.9 2 2 2h59c1.1 0 2-.9 2-2v-37c0-1.1-.9-2-2-2zm-44.6 28l-2.9-11.3c.5.3 1 .6 1.5 1-2.4-2-5-2.5-5-2.5l.1-.2h5.3c1.5 0 1.6 1.2 1.6 1.2l1.1 5.9v0l .4 1.9 3.2-9h3.6l-5.3 13zm8 0l2.1-13h3.3l-2.1 13zm9.2 0c-2.3 0-3.8-.7-3.8-.7l.5-2.8c1.4 1.1 5.5 1.4 5.5-.3 0-1.7-4.6-1.7-4.6-5 0-3.5 3.9-4.2 5.6-4.2 1.5 0 3 .5 3 .5l-.5 2.7c-1.4-.8-4.7-1-4.7.5 0 1.4 4.7 1.7 4.7 5 0 3.1-3.4 4.3-5.7 4.3zm14.3 0l-.4-1.9h-4.3l-.6 1.9h-3.5l5-12c0 0 .3-1 1.5-1h2.7l2.7 13z" fill="#333" fill-rule="evenodd"></path></svg>