<svg class="m-foot__svg" viewBox="0 0 63 41" xmlns="http://www.w3.org/2000/svg"><path d="m29 16.6c1.1 0 2.6-.2 3 .5.2.4.1 1.7.1 2.3.5 0 1.1 0 1.6 0 0-1.6 0-2.9-1-3.4 0 0 0-.1 0-.1.9-.4 1.4-2.3.4-3-1.1-.8-4-.5-5.8-.5v7.1c.5 0 1.1 0 1.6 0v-2.9zm0-2.8c1 0 2.6-.2 2.9.5.2.3 0 .6-.1.8-.7.3-1.9.2-2.8.2zm13.1 5.7c.2-.5.4-1.4.5-1.9h3.3c.2.5.4 1.4.6 1.9h2.8c0-1.6 0-3.6 0-5.2 0 0 0 .1 0 .1 1 1.6 2.4 3.6 3.4 5.1.7 0 1.7 0 2.5 0v-7h-1.9c0 1.5 0 3 0 4.4 0 0 0-.1 0-.1l-2.6-4.4h-2.5v6.4c0 0-1.8-4.4-2.6-6.4h-2.4c-.8 1.8-1.5 3.5-2.3 5.3-.5-.1-1-.1-1.5-.2-.6-.3-.9-2.1-.4-2.9.5-.8 1.6-.8 3-.8v-1.4c-1.3 0-2.7-.1-3.5.4-1.3.8-1.7 3.9-.6 5.3.6 1.1 2.3 1.4 4.2 1.4zm1.2-3.4c.3-.8.7-1.6 1-2.4.5.5.9 1.8 1 2.5zm-17 1.6h-3.7c0-.4 0-.9 0-1.3h3.5v-1.4c-1.2 0-2.4 0-3.6 0 0-.4 0-.8 0-1.2h3.6v-1.4h-5.1v7c1.8 0 3.5 0 5.3 0zm10-5.3h-1.7v7.1c.6 0 1.1 0 1.7 0zm24.7-12.4h-59c-1.1 0-2 .9-2 2v37c0 1.1.9 2 2 2h59c1.1 0 2-.9 2-2v-37c0-1.1-.9-2-2-2zm-47.5 19.8l0 0c-.1.3-.1.9-.1.9h-5.3c0 0-.4-.9-.5-1.4h-1.5c-.1.3-.5 1.5-.7 1.5h-2.4v-1.4h1.6c.5-2 1.5-1.9 3.9-1.8.2.5.4 1.4.5 1.8h3.2c0-1.7 0-3.8 0-5.5 0 0 0 .1 0 .1.7 1.7 1.5 3.7 2.2 5.4h1.6c.7-1.7 1.5-3.7 2.2-5.4h0v5.4h1.6v-7c-.9 0-1.8 0-2.6 0-.6 1.5-1.2 3-1.8 4.4 0 0-.1 0-.1 0-.7-1.5-1.3-3-2-4.4h-2.6c0 2 0 4.5 0 6.5 0 0 0-.1 0-.1-.9-2-1.7-4.4-2.6-6.4h-2.4c-.9 2.1-1.8 4.6-2.7 6.7h0v-4c .6-1.3 1.8-4 1.8-4h4.2c0 0 .2.5.4.8h0c0-.3 0-.6 0-.9h4.8c.3.8.7 1.6 1 2.4 0 0 .1 0 .1 0 .3-.8.7-1.5 1-2.3h11.7c1.9 0 4.2-.2 5.4.5v-.5h4.2v.5c2-.9 5.9-.5 8.7-.5.2.3.4.7.5 1v-1c1.1 0 3.8-.3 4.6.1.2.3.4.6.5.9v-1h4.6v9.7h-4.5c-.3-.4-.5-.9-.8-1.3h0v1.3h-5.5c-.2-.5-.4-1-.6-1.5h-1.3c-.2.5-.4 1-.6 1.5-2.1 0-4-.1-5.4-.5v.5h-6.9c0-.7.2-2.3-.1-2.8h-.4v2.8c-4.4 0-8.8 0-13.2 0 0-.3 0-.7 0-1-.1.3-.3.7-.4 1-.9 0-1.9 0-2.8 0-.3-.3-.4-.6-.5-1zm-7.7-3.6l0 0c .3-.9.7-1.7 1-2.5.4.6.9 1.7 1 2.5zm53 15.4c-1.1.6-4.6.3-6.2.3v-.5c-1.1.7-3 .5-4.8.5h-10.3c0-.8 0-1.6 0-2.4-.1 0-.2 0-.4 0 0 0-.1 0-.1 0v2.4h-4.3v-2.4c-.8.1-1.6.3-2.6.3v2.1h-5.2c-.4-.5-.8-.9-1.2-1.4-.4.5-.9.9-1.3 1.4h-8.4v-10h8.5c.4.5.8.9 1.3 1.4.4-.5.9-.9 1.3-1.4 2.5 0 6.1-.4 7.9.5v-.5c2.6 0 5.4-.1 7.2.5v-.5h7.7c0 .2 0 .4 0 .5 1.3-.8 4-.5 6.1-.5 0 .2 0 .4 0 .5 1.2-.6 3-.5 4.8-.5v1.3c-2.5 0-5.9.2-5.3 3.2.2 1.2 1.3 1.5 2.6 1.6.4 0 .8.1 1.2.1.4.3.2.8-.1 1-.7.4-2.5.1-3.5.1v1.4c2 0 4.1.2 5.2-.7.1.4.2 1.5-.1 1.7zm.1-7v2.5c-1.1-.8-2.5-.2-3.6-.9 0-.2-.1-.3-.1-.5.5-.7 2.6-1.1 3.7-1.1zm-33.2-1.4c-.7.7-1.3 2.1-2 2.8-.2-.2-.4-1-.5-1.2-.5-.5-.9-1.1-1.4-1.6h-6.4v7.4h6.3c.7-.7 1.3-1.4 2-2.1.1.1.2.2.3.2.6.6 1.1 1.3 1.7 1.9h3.1v-2.2c2.5 0 4.3.1 4.7-2.1.1-.5 0-1.8-.3-2.2-1-1.4-5.1-.9-7.5-.9zm-3 4.1c-.6.6-1.1 1.2-1.7 1.9h-4v-1.3h3.5v-1.4h-3.5v-1.9h4c .5.6 1.1 2 1.7 2.7zm2.1 0c .1-.1.2-.2.3-.3.7-.8 1.3-2.2 2-3 0 1.7 0 4.1 0 5.8-.8-.8-1.6-1.6-2.3-2.5zm6.6-.5c-.7.2-1.8.2-2.7.1v-2.3c1.1 0 2.6.4 2.9 1.2.3.4 0 .8-.2 1zm17.9-.4c-.1-.1-.1-.2-.2-.3v-.3c.1-.2.1-1 .3-1.1.7-.4 2.5-.1 3.5-.1v-1.4c-2.4 0-4.9-.4-5.4 1.5-.1.5-.1 1.7.1 2.1.7 1.6 2.9.5 3.9 1.5 0 .1 0 .3 0 .4-.1.1-.2.2-.3.3-.8.3-2.5.1-3.5.1v1.4c2 0 4.7.3 5.4-1 .2-.3.3-1 .2-1.5-.5-1.8-2.1-1.2-4-1.6zm-7.9 4.2h5.3v-1.4c-1.2 0-2.5 0-3.7 0v-1.3h3.6v-1.4h-3.6v-1.9c1.2 0 2.5 0 3.7 0v-1.4h-5.3zm-7.2-7.4v7.4h1.6v-2.4c2.6-.1 3.1-.3 3.1 2.4h1.6c0-1.9.1-2.2-.9-3.1l.9-.9c1.6-3.3-3.9-3.4-6.3-3.4zm4.3 3.4c-.7.2-1.8.1-2.7.1v-2.1c.9 0 2.6.5 2.9 1.1.1.4 0 .7-.2.9z" fill="#333" fill-rule="evenodd"></path></svg>