<svg class="m-foot__svg" viewBox="0 0 63 41" xmlns="http://www.w3.org/2000/svg"><path d="m25.7 21.8c0-.1 0-.2 0-.4l.2-1.6h.9l.2-1.3h-.9l.2-1.7-1.8.9-.1.8h-.6l-.2 1.3h.6l-.2 1.6c-.1.5-.1.9 0 1.1.1.2.2.4.4.5.2.1.5.2.9.2.4 0 .8 0 1.2-.1v-1.2c-.2 0-.4.1-.5.1-.1 0-.2-.1-.3-.2zm-4.9-2.3c.1-.1.2-.1.4-.1.2 0 .3 0 .5.1.1.1.1.2.2.3l1.7-.2c-.1-.3-.2-.5-.3-.7-.1-.2-.3-.3-.6-.4s-.6-.1-1.2-.1c-.5 0-.9.1-1.2.2-.3.1-.6.3-.8.5-.2.2-.3.5-.4.8 0 .3 0 .5.1.7.1.2.3.4.5.5.2.1.6.2 1.2.3.4.1.6.1.7.2.1.1.2.2.2.3 0 .1-.1.2-.2.3-.1.1-.3.1-.6.1-.2 0-.4 0-.5-.1-.1-.1-.2-.2-.2-.4l-1.7.2c0 .4.2.8.5 1 .3.2.9.4 1.7.4.6 0 1-.1 1.4-.2.4-.1.6-.3.8-.6.2-.2.3-.5.3-.8 0-.3 0-.5-.1-.7-.1-.2-.3-.4-.6-.5s-.7-.2-1.2-.3c-.4 0-.6-.1-.7-.2-.1-.1-.2-.1-.1-.2.1-.2.1-.3.2-.4zm-2.3 2.6l.3-2c0-.2 0-.4 0-.7s-.1-.4-.3-.5c-.2-.2-.4-.3-.7-.4-.3-.1-.7-.1-1.2-.1-.3 0-.6 0-.9.1-.3 0-.5.1-.7.2-.2.1-.4.3-.6.4-.1.2-.3.4-.4.7l1.6.2c.1-.2.2-.3.3-.4.2-.1.4-.1.7-.1.2 0 .4 0 .4.1.1.1.1.2.1.4-.2.1-.4.2-.6.2-.2.1-.6.1-1.3.3-.6.1-.9.3-1.2.5-.2.2-.4.5-.4.8 0 .4.1.7.3.9.2.2.6.4 1.2.4.4 0 .8-.1 1.1-.2.2-.1.5-.2.7-.5 0 .1 0 .2 0 .3 0 .1 0 .1.1.3h1.6c-.1-.2-.1-.3-.1-.5 0 0 0-.1 0-.4zm-1.5-.9c0 .2-.1.4-.2.5-.1.1-.2.2-.4.3-.2.1-.4.1-.6.1-.2 0-.3 0-.4-.1-.1-.1-.1-.2-.1-.3 0-.1.1-.2.2-.3.1-.1.3-.2.7-.3.3-.1.5-.1.8-.2zm-5.5-4.3l-1.5 3.8-.5-3.8h-2.4l-.8 6.2h1.6l.6-4.7.5 4.7h1.4l1.8-4.7-.6 4.7h1.6l.8-6.2zm40.3 1.6c-.5 0-1 .2-1.4.6s-.7 1-.8 1.7c-.1.7 0 1.2.3 1.7.3.5.7.7 1.3.7.3 0 .6-.1.9-.2.2-.1.4-.3.7-.6l-.1.7h1.6l.8-6.2h-1.7l-.3 2.1c-.1-.2-.3-.3-.5-.4-.3-.1-.5-.1-.8-.1zm1.1 2.3c-.1.4-.2.7-.3.8s-.4.3-.6.3c-.2 0-.4-.1-.5-.3-.1-.2-.2-.4-.1-.8.1-.4.2-.7.3-.8.2-.2.3-.3.5-.3.2 0 .4.1.5.3.2.2.2.5.2.8zm-23.9 2.4c.7 0 1.2-.1 1.6-.3s.7-.5 1.1-1l-1.7-.1c-.1.1-.2.2-.3.3-.2.1-.3.1-.5.1-.3 0-.5-.1-.6-.3-.1-.1-.1-.3-.1-.6h3.4v-.2c.1-.6 0-1.1-.1-1.4-.1-.4-.4-.7-.7-.8-.3-.2-.8-.3-1.5-.3-.8 0-1.4.2-1.9.7-.5.4-.8 1-.9 1.7-.1.5 0 .9.2 1.3.2.4.4.6.7.8.2 0 .7.1 1.3.1zm-.2-3.4c.2-.2.4-.3.7-.3.2 0 .4.1.5.2.1.1.2.4.2.7h-1.7c.1-.2.2-.4.3-.6zm31.5-19.8h-57.6c-1.5 0-2.7 1.3-2.7 2.8v35.3c0 1.6 1.2 2.9 2.7 2.9h57.5c1.5 0 2.7-1.3 2.7-2.8v-35.4c.1-1.5-1.1-2.8-2.6-2.8zm-40.6 35c-8.1 0-14.6-6.5-14.6-14.5s6.5-14.5 14.6-14.5c4.5 0 8.7 2 11.5 5.6h-1.8v1.2h2.7c.2.3.3.5.4.7h-4.1v1.2h4.7c.1.3.2.5.3.7h-6v1.2h6.4c.2.7.3 1.4.4 2.1-.1.1-.2.3-.4.5l.1-.7h-1.6l-.6 4.5h1.7l.2-1.5c.1-.7.2-1.2.5-1.5.1-.1.1-.1.2-.1 0 .2 0 .3 0 .5 0 1.6-.3 3.2-.8 4.8h-6.1v1.2h5.6c-.1.2-.2.5-.4.7h-4.2v1.2h3.5c-.1.2-.3.5-.5.7h-2v1.2h1c-2.8 3.1-6.7 4.8-10.7 4.8zm22.6.1c-4.8 0-9-2.3-11.7-5.7h.9l0 0c .3-.4.5-.7.7-1l .1-.2h-2.6c-.2-.2-.3-.5-.4-.7h3.5v-.1c.2-.3.3-.7.5-1l .1-.2h-4.7c-.1-.2-.2-.5-.3-.7h5.2v-.1c.6-1.6.9-3.3.9-4.9 0-.2 0-.4 0-.6 0 0 .1 0 .1 0 .1 0 .3 0 .5.1l.1-.2c0 .1 0 .1 0 .2-.1.8 0 1.4.2 1.9.2.5.6.8 1 1 .4.2.9.3 1.6.3.6 0 1-.1 1.4-.2s.7-.4 1-.7c.3-.3.5-.7.7-1.2l-1.6-.5c-.1.4-.3.7-.5.9-.2.2-.5.3-.9.3-.4 0-.7-.1-.8-.4-.2-.3-.2-.7-.1-1.4.1-.6.2-1 .4-1.2.3-.4.6-.5 1.1-.5.2 0 .4 0 .5.1.1.1.3.2.3.3.1.1.1.2.1.4l1.7-.4c-.1-.7-.4-1.1-.8-1.5-.4-.3-1-.5-1.8-.5-1 0-1.8.3-2.4.8-.3.3-.6.6-.7 1-.2-.1-.4-.1-.5-.1-.2 0-.4.1-.6.2-.1-.7-.2-1.4-.4-2.1v-.1h-5.9c.1-.2.1-.5.2-.7h5.4l-.1-.2c-.1-.3-.2-.6-.4-1v-.1h-4.5c.1-.2.2-.5.4-.7h3.7l-.1-.2c-.2-.3-.3-.6-.6-1v-.1h-2.3c.2-.3.3-.5.5-.7h1.3l-.2-.2c-.2-.2-.3-.4-.5-.6 2.7-3.2 6.7-5.2 11.3-5.2 8.2 0 14.8 6.6 14.8 14.6 0 8.3-6.6 14.8-14.8 14.8zm7.2-16.6c-.2 0-.5.1-.6.2-.2.1-.4.3-.6.7l.1-.7h-1.6l-.6 4.5h1.7l.2-1.5c.1-.7.2-1.2.5-1.5.1-.2.3-.3.6-.3.1 0 .3 0 .5.1l.7-1.2c-.4-.2-.7-.3-.9-.3zm-3.7.4c-.2-.2-.4-.3-.7-.4-.3-.1-.7-.1-1.2-.1-.3 0-.6 0-.9.1-.3 0-.5.1-.7.2-.2.1-.4.3-.6.4-.1.2-.3.4-.4.7l1.6.2c.1-.2.2-.3.3-.4.2-.1.4-.1.7-.1.2 0 .4 0 .4.1.1.1.1.2.1.4-.2.1-.4.2-.6.2-.2.1-.6.1-1.3.3-.6.1-.9.3-1.2.5-.2.2-.4.5-.4.8 0 .4.1.7.3.9s.6.4 1.2.4c.4 0 .8-.1 1.1-.2.2-.1.5-.2.7-.5 0 .1 0 .2 0 .3 0 .1 0 .1.1.3h1.7c-.1-.2-.1-.3-.1-.5 0-.1 0-.3 0-.5l.3-2c0-.2 0-.4 0-.7-.1-.1-.2-.2-.4-.4zm-1.5 2.3c0 .2-.1.4-.2.5-.1.1-.2.2-.4.3-.2.1-.4.1-.6.1-.2 0-.3 0-.4-.1-.1-.1-.1-.2-.1-.3 0-.1.1-.2.2-.3.1-.1.3-.2.7-.3.3-.1.5-.1.8-.2z" fill="#333"></path></svg>